<svg xmlns="http://www.w3.org/2000/svg" viewBox="0 0 136 136" height="136" width="136"><defs><clipPath id="a"><path d="M0 102h102V0H0z"/></clipPath></defs><g clip-path="url(#a)" transform="matrix(1.33333 0 0 -1.33333 0 136)"><path d="M74.68 33.608l-7.512-7.511A22.788 22.788 0 0 0 50.95 19.38a22.789 22.789 0 0 0-16.217 6.717l-7.418 7.418c-5.38 5.379-5.38 14.133 0 19.512l1.67 1.669-2.049 2.148a6.735 6.735 0 0 0-1.72 6.014c.984 4.743 2.882 13.502 4.56 18.869.124.397.435.709.834.834a1.27 1.27 0 0 0 1.161-.207c7.84-6.058 10.111-12.087 10.766-14.923a17.081 17.081 0 0 0 16.93.047c.67 2.855 2.96 8.852 10.756 14.876a1.273 1.273 0 0 0 1.995-.627c1.677-5.364 3.576-14.125 4.56-18.87a6.735 6.735 0 0 0-1.72-6.013l-2.004-2.1 1.625-1.623a13.712 13.712 0 0 0 4.041-9.757c0-3.685-1.436-7.15-4.04-9.756M51 102C22.833 102 0 79.167 0 51 0 22.834 22.833 0 51 0c28.166 0 51 22.834 51 51 0 28.167-22.834 51-51 51" fill="#4f4139"/><path d="M50.95 32.72c1.03 0 1.869.736 1.869 1.641 0 .334-.182 1.111-1.87 1.111-1.685 0-1.866-.777-1.866-1.11 0-.906.839-1.642 1.867-1.642" fill="#4f4139"/><path d="M53.689 41.09a3.256 3.256 0 0 1-2.739 1.455 3.26 3.26 0 0 1-2.739-1.455l-4.97-7.364a3.417 3.417 0 0 1 .414-4.321 2.592 2.592 0 0 1 3.662 0l1.364 1.365c-1.286.733-2.147 2.069-2.147 3.59 0 2.19 1.775 3.662 4.416 3.662 2.642 0 4.418-1.472 4.418-3.661 0-1.522-.863-2.858-2.148-3.591l1.365-1.365a2.592 2.592 0 0 1 3.662 0 3.42 3.42 0 0 1 .415 4.32zM60.972 46.865a4.332 4.332 0 0 1-1.878-.958l.383-.24a2.435 2.435 0 0 1 1.845-.304 2.432 2.432 0 0 1 1.52 1.088l.238.383a4.33 4.33 0 0 1-2.108.03M52.272 55.15a1.275 1.275 0 0 0-2.549 0v8.169a1.274 1.274 0 1 0 2.549 0zm9 7.772a14.366 14.366 0 0 1-10.229 4.237 14.371 14.371 0 0 1-10.229-4.237L29.118 51.225a11.2 11.2 0 0 1-2.526-3.86l.778.387a39.869 39.869 0 0 1 11.811 8.883 5.503 5.503 0 0 0 8.919-1.13l2.85-5.366 2.851 5.366a5.506 5.506 0 0 0 4.167 2.877 5.505 5.505 0 0 0 4.752-1.747 39.843 39.843 0 0 1 11.811-8.883l.928-.46a11.16 11.16 0 0 1-2.582 4.027z" fill="#4f4139"/><path d="M50.95 29.435l-1.831-1.831a5.03 5.03 0 0 0-.494-.434 4.453 4.453 0 0 1 2.325-.644c.84 0 1.635.224 2.326.644a5.149 5.149 0 0 0-.494.434z" fill="#4f4139"/><path d="M66.016 46.728l-1.01-1.624a4.958 4.958 0 0 0-3.107-2.224 4.968 4.968 0 0 0-3.769.624l-1.624 1.012a1.274 1.274 0 0 0-.408 1.755 6.86 6.86 0 0 0 4.297 3.077 6.859 6.859 0 0 0 5.214-.864 1.275 1.275 0 0 0 .407-1.755m-5.968-19.125a5.126 5.126 0 0 0-4.04-1.486 7.064 7.064 0 0 0-5.058-2.14 7.062 7.062 0 0 0-5.057 2.14 5.124 5.124 0 0 0-4.04 1.486 5.969 5.969 0 0 0-.726 7.548l4.973 7.364a5.846 5.846 0 0 0 4.85 2.578 5.845 5.845 0 0 0 4.851-2.578l4.972-7.364a5.966 5.966 0 0 0-.725-7.548m-23.153 17.5l-1.01 1.625a1.275 1.275 0 0 0 .407 1.754 6.912 6.912 0 0 0 9.511-2.212 1.26 1.26 0 0 0 .158-.963 1.27 1.27 0 0 0-.566-.793l-1.625-1.01a4.994 4.994 0 0 0-6.875 1.6m23.943 9.811a2.915 2.915 0 0 1-2.55.938 2.917 2.917 0 0 1-2.236-1.544l-3.975-7.484a1.276 1.276 0 0 0-2.25 0L45.85 54.31a2.919 2.919 0 0 1-2.236 1.543 2.918 2.918 0 0 1-2.552-.937A42.41 42.41 0 0 0 28.5 45.468l-2.64-1.306a11.176 11.176 0 0 1 3.258-8.846l7.418-7.416a20.245 20.245 0 0 1 14.414-5.972A20.251 20.251 0 0 1 65.366 27.9l7.511 7.51a11.22 11.22 0 0 1 3.261 8.705l-2.736 1.353a42.406 42.406 0 0 0-12.564 9.449M34.154 59.866l-2.662 9.042a1.275 1.275 0 0 0 2.444.72l2.27-7.709 2.806 2.805c.395.395.805.765 1.226 1.112-.064.533-.333 2.148-1.376 4.345-1.066 2.248-3.162 5.534-7.191 8.973-1.501-5.27-3.09-12.622-3.96-16.814a4.18 4.18 0 0 1 1.07-3.737l2.006-2.104zM65.81 61.99l2.248 7.638a1.274 1.274 0 1 0 2.444-.72l-2.64-8.97 3.39-3.391 1.96 2.056a4.187 4.187 0 0 1 1.072 3.738c-.87 4.192-2.46 11.543-3.96 16.816-7.288-6.213-8.402-11.987-8.56-13.25.45-.367.89-.761 1.311-1.182z" fill="#4f4139"/><path d="M42.805 45.905a4.378 4.378 0 0 1-3.984.927l.238-.38a2.446 2.446 0 0 1 3.365-.784z" fill="#4f4139"/></g></svg>